<?xml version="1.0" encoding="utf-8"?>
<svg xmlns="http://www.w3.org/2000/svg" viewBox="0 0 24 24" width="384" height="384">
  <path d="M19.4,11c-0.8,0-1.5-0.5-1.9-1.3C16.6,7.5,14.5,6,12,6S7.4,7.5,6.4,9.8c-0.4,1-1.6,1.5-2.6,1.1c-1-0.4-1.5-1.6-1.1-2.6C4.3,4.5,7.9,2,12,2s7.7,2.5,9.3,6.2c0.4,1-0.1,2.2-1.1,2.6C19.9,11,19.7,11,19.4,11z" fill="#F48C06" />
  <path d="M4.6,17c-1.1,0-2-0.9-2-2c0-0.9,0.7-1.8,1.6-2c1.2-0.3,2.4,0.7,2.4,2C6.6,16.1,5.7,17,4.6,17z" opacity=".35" fill="#F48C06" />
  <path d="M13.2,20.2c-0.4-1,0.1-2.2,1.1-2.6l0,0l0,0l0,0c1-0.4,2.2,0.1,2.6,1.1l0,0c0.4,1-0.1,2.2-1.1,2.6c-0.3,0.1-0.5,0.2-0.8,0.2C14.3,21.4,13.6,20.9,13.2,20.2z" opacity=".35" fill="#F48C06" />
  <path d="M8.1,21.2c-1-0.4-1.5-1.6-1.1-2.6l0,0c0.4-1,1.6-1.5,2.6-1.1l0,0l0,0l0,0c1,0.4,1.5,1.6,1.1,2.6l0,0C10.3,21.2,9.1,21.7,8.1,21.2z" opacity=".35" fill="#F48C06" />
</svg>